<?xml version="1.0" encoding="UTF-8"?>
<svg xmlns="http://www.w3.org/2000/svg" width="312" height="71" viewBox="0 0 312 71" fill="none">
  <path d="M7.12469 48.0744V24.4868H21.5124V22.7575H7.12469V1.66012H29.0522V0H0V49.8037H28.9138V48.0744H7.12469Z" fill="white"></path>
  <path d="M49.0845 39.0431C48.5777 37.8734 47.8369 36.9377 46.8232 36.197C45.8485 35.4562 44.289 34.4425 42.1057 33.1949C39.8054 31.8303 38.2459 30.6997 37.4272 29.725C36.5694 28.7503 36.2186 27.6587 36.3355 26.45C36.4525 25.3974 36.9203 24.5006 37.7781 23.7209C38.5968 22.9411 39.8054 22.6292 41.4039 22.8242C43.0804 22.9801 44.484 23.7209 45.6146 25.0465C45.8875 25.3584 46.1604 25.7093 46.3944 26.0602L47.2521 25.3584C46.3164 24.1108 45.3807 23.2141 44.406 22.7462C43.4313 22.2784 42.4176 21.9664 41.287 21.8495C39.2596 21.6545 37.5051 22.0834 36.0626 23.2141C34.5811 24.3447 33.7623 25.8652 33.5674 27.7756C33.4114 29.0232 33.6064 30.2318 34.0742 31.4015C34.5811 32.5711 35.3218 33.5458 36.3355 34.3645C37.3882 35.1833 38.9087 36.158 40.9361 37.3276C43.2363 38.6142 44.7959 39.7449 45.6146 40.7196C46.4333 41.7332 46.7452 42.9029 46.5893 44.2284C46.4723 45.554 45.8095 46.7237 44.6789 47.6594C43.5093 48.6341 41.9887 49.0629 40.1173 48.79C37.3102 48.3222 35.7117 47.1525 33.6064 44.1505L32.8656 44.9692C34.3861 47.4644 37.7781 49.5308 40.3513 49.8037C42.9244 50.0766 45.0298 49.5698 46.7063 48.3222C48.3827 47.0356 49.3574 45.2811 49.5913 42.9808C49.7473 41.5383 49.5913 40.2517 49.0845 39.0431Z" fill="white"></path>
  <path d="M79.7852 21.7325H52.4938L52.4548 22.6682H64.0342V49.8037H68.0889V22.6682H79.7852V21.7325Z" fill="white"></path>
  <path d="M106.379 21.7325V34.5595H91.4075V21.7325H87.3528V49.8037H91.4075V35.5342H106.379V49.8037H110.434V21.7325H106.379Z" fill="white"></path>
  <path d="M123.635 48.829V35.5342H131.744V34.5595H123.635V22.6682H135.994V21.7325H119.619V49.8037H135.916V48.829H123.635Z" fill="white"></path>
  <path d="M169.494 21.7325H142.202L142.163 22.6682H153.743V49.8037H157.797V22.6682H169.494V21.7325Z" fill="white"></path>
  <path d="M177.061 21.7325V49.8037H181.116V21.7325H177.061Z" fill="white"></path>
  <path d="M215.436 46.5677C214.657 45.671 213.604 44.5014 212.356 42.9808L205.066 34.1306L209.51 28.5164C209.939 28.0095 210.368 27.5807 210.719 27.1128L215.046 21.7325H213.682L210.836 25.2804C210.602 25.6313 209.978 26.3721 209.042 27.5417L204.403 33.3509L199.334 27.2298L199.256 27.2688L194.929 21.7325H189.51L191.537 24.0328C191.693 24.2667 191.927 24.4617 192.083 24.6566L194.5 27.5027L201.869 36.3919L197.19 42.0841C196.527 42.8249 195.981 43.5657 195.514 44.1895L190.991 49.8037H192.434L196.683 44.3844C197.034 43.9165 197.502 43.2538 198.126 42.513L202.531 37.1717L207.561 43.3317C208.458 44.4234 209.042 45.2811 209.393 45.749L212.512 49.8037H218.204L215.436 46.5677Z" fill="white"></path>
  <path d="M146.759 59.0123H145.661L143.171 63.3362L140.669 59.0123H138.586L141.903 64.3323V67.6714H143.578V64.253L146.759 59.0123Z" fill="#DEDEDE"></path>
  <path d="M152.807 60.6875C153.26 61.2648 153.385 62.1137 153.385 63.3362C153.385 64.5926 153.249 65.4529 152.807 66.0075C152.332 66.5848 151.834 66.8677 151.03 66.8677C150.114 66.8677 149.695 66.5961 149.231 66.0075C148.778 65.4415 148.529 64.5587 148.529 63.3249C148.529 62.1137 148.778 61.2309 149.231 60.6649C149.695 60.0763 150.091 59.8047 150.94 59.8047C151.823 59.8047 152.355 60.099 152.807 60.6875ZM153.962 66.4602C154.811 65.6566 155.23 64.6039 155.23 63.3249C155.23 62.0119 154.788 60.9479 153.905 60.1556C153.045 59.3972 152.23 59.0123 150.94 59.0123C149.649 59.0123 148.846 59.4085 147.997 60.1782C147.125 60.9592 146.695 62.0119 146.695 63.2796C146.695 64.5926 147.114 65.6566 147.974 66.4716C148.812 67.2639 149.627 67.6714 150.951 67.6714C152.309 67.6714 153.136 67.2639 153.962 66.4602Z" fill="#DEDEDE"></path>
  <path d="M163.849 65.4189C163.906 65.0793 163.973 64.5587 163.973 63.8569V59.0123H163.192V63.8116C163.192 64.4228 163.125 64.8643 163.079 65.1472C163.045 65.3849 162.921 65.634 162.74 65.883C162.581 66.1207 162.31 66.3244 161.925 66.4942C161.563 66.664 161.144 66.7432 160.691 66.7432C160.102 66.7432 159.65 66.6187 159.333 66.381C159.016 66.1433 158.857 65.883 158.789 65.566C158.755 65.4076 158.744 65.1812 158.733 64.8756C158.721 64.5587 158.721 64.1851 158.721 63.755V59.0123H157.058V63.7097L157.001 64.536C156.956 65.2152 157.092 65.7924 157.329 66.2225C157.567 66.664 157.952 67.0149 158.495 67.2752C159.027 67.5356 159.672 67.6714 160.419 67.6714C161.053 67.6714 161.619 67.5695 162.117 67.3658C162.604 67.162 163 66.8791 163.294 66.5168C163.555 66.1886 163.781 65.8151 163.849 65.4189Z" fill="#DEDEDE"></path>
  <path d="M169.363 60.2121C169.59 60.5064 169.726 60.8687 169.726 61.3893C169.726 61.6949 169.68 61.9213 169.612 62.1024C169.544 62.2948 169.454 62.4307 169.341 62.5325C169.205 62.6684 169.046 62.7929 168.877 62.8495C168.763 62.8834 168.639 62.9287 168.503 62.9627C168.379 62.9966 168.254 63.0079 168.13 63.0193H167.439V59.8499L167.688 59.8613C168.65 59.8613 169.16 59.9858 169.363 60.2121ZM169.703 63.4947C170.178 63.3362 170.575 63.0985 170.869 62.8155C171.31 62.3967 171.525 61.876 171.525 61.2761C171.525 60.7668 171.356 60.314 171.016 59.9405C170.676 59.567 170.246 59.3519 169.737 59.2048C169.228 59.0576 168.571 59.0123 167.801 59.0123H165.775V67.6714H167.439V63.789L167.53 63.8003C169.601 63.8003 170.688 67.1168 170.824 67.6714H172.329C171.435 65.4529 170.812 64.6152 170.812 64.6152C170.495 64.1964 170.133 63.789 169.703 63.4947Z" fill="#DEDEDE"></path>
  <path d="M180.45 60.2121C180.677 60.5064 180.812 60.8687 180.812 61.3893C180.812 61.6949 180.767 61.9213 180.699 62.1024C180.631 62.2948 180.541 62.4307 180.428 62.5325C180.292 62.6684 180.133 62.7929 179.964 62.8495C179.85 62.8834 179.726 62.9287 179.59 62.9627C179.466 62.9966 179.341 63.0079 179.216 63.0193H178.526V59.8499L178.775 59.8613C179.737 59.8613 180.247 59.9858 180.45 60.2121ZM180.79 63.4947C181.265 63.3362 181.661 63.0985 181.956 62.8155C182.397 62.3967 182.612 61.876 182.612 61.2761C182.612 60.7668 182.442 60.314 182.103 59.9405C181.763 59.567 181.333 59.3519 180.824 59.2048C180.314 59.0576 179.658 59.0123 178.888 59.0123H176.862V67.6714H178.526V63.789L178.617 63.8003C180.688 63.8003 181.775 67.1168 181.91 67.6714H183.416C182.522 65.4529 181.899 64.6152 181.899 64.6152C181.582 64.1964 181.22 63.789 180.79 63.4947Z" fill="#DEDEDE"></path>
  <path d="M190.239 59.7933V59.001H184.976V67.6601H190.217V66.8791H186.662V63.5173H189.005V62.7363H186.662V59.7933H190.239Z" fill="#DEDEDE"></path>
  <path d="M194.958 67.1847C195.501 66.7659 195.818 66.1886 195.897 65.4642C195.942 65.0001 195.886 64.5813 195.716 64.1851C195.558 63.8116 195.309 63.4947 194.992 63.257C194.697 63.0419 194.233 62.7476 193.588 62.3628C192.932 61.9779 192.501 61.661 192.298 61.412C192.094 61.1856 192.015 60.9366 192.049 60.6536C192.071 60.4272 192.173 60.2121 192.377 60.031C192.547 59.8726 192.818 59.782 193.237 59.8273C193.656 59.8726 194.007 60.0537 194.29 60.3933C194.369 60.4725 194.426 60.563 194.641 60.9026L195.297 60.3593C194.878 59.782 194.573 59.4877 194.245 59.3293C193.939 59.1821 193.599 59.0802 193.248 59.0463C192.603 58.9784 192.026 59.1255 191.551 59.4877C191.064 59.8613 190.792 60.3706 190.724 60.9932C190.679 61.3893 190.736 61.7855 190.905 62.1703C191.064 62.5439 191.302 62.8721 191.63 63.1325C191.947 63.3815 192.4 63.6645 192.999 64.004C193.667 64.3775 194.075 64.6832 194.278 64.9322C194.471 65.1699 194.55 65.4415 194.516 65.7698C194.482 66.0867 194.335 66.3584 194.041 66.5961C193.769 66.8225 193.396 66.9356 192.92 66.8677C192.196 66.7545 191.788 66.4602 191.03 65.3623L190.464 65.9735C191.053 66.9356 192.094 67.5695 192.932 67.6601C193.724 67.7506 194.403 67.6035 194.958 67.1847Z" fill="#DEDEDE"></path>
  <path d="M204.516 65.4189C204.572 65.0793 204.64 64.5587 204.64 63.8569V59.0123H203.859V63.8116C203.859 64.4228 203.791 64.8643 203.746 65.1472C203.712 65.3849 203.587 65.634 203.406 65.883C203.248 66.1207 202.976 66.3244 202.591 66.4942C202.229 66.664 201.81 66.7432 201.358 66.7432C200.769 66.7432 200.316 66.6187 199.999 66.381C199.682 66.1433 199.524 65.883 199.456 65.566C199.422 65.4076 199.411 65.1812 199.399 64.8756C199.388 64.5587 199.388 64.1851 199.388 63.755V59.0123H197.724V63.7097L197.668 64.536C197.622 65.2152 197.758 65.7924 197.996 66.2225C198.234 66.664 198.618 67.0149 199.162 67.2752C199.694 67.5356 200.339 67.6714 201.086 67.6714C201.72 67.6714 202.286 67.5695 202.784 67.3658C203.271 67.162 203.667 66.8791 203.961 66.5168C204.221 66.1886 204.448 65.8151 204.516 65.4189Z" fill="#DEDEDE"></path>
  <path d="M212.762 67.6714V66.8791H208.269V59.0123H206.593V67.6714H212.762Z" fill="#DEDEDE"></path>
  <path d="M219.014 59.7933L219.003 59.0123H210.581L210.559 59.7933H213.932V67.6714H215.607V59.7933H219.014Z" fill="#DEDEDE"></path>
  <path d="M223.708 67.1847C224.252 66.7659 224.569 66.1886 224.648 65.4642C224.693 65.0001 224.637 64.5813 224.467 64.1851C224.308 63.8116 224.059 63.4947 223.742 63.257C223.448 63.0419 222.984 62.7476 222.339 62.3628C221.682 61.9779 221.252 61.661 221.048 61.412C220.845 61.1856 220.765 60.9366 220.799 60.6536C220.822 60.4272 220.924 60.2121 221.128 60.031C221.297 59.8726 221.569 59.782 221.988 59.8273C222.407 59.8726 222.758 60.0537 223.041 60.3933C223.12 60.4725 223.176 60.563 223.391 60.9026L224.048 60.3593C223.629 59.782 223.324 59.4877 222.995 59.3293C222.69 59.1821 222.35 59.0802 221.999 59.0463C221.354 58.9784 220.777 59.1255 220.301 59.4877C219.815 59.8613 219.543 60.3706 219.475 60.9932C219.43 61.3893 219.486 61.7855 219.656 62.1703C219.815 62.5439 220.052 62.8721 220.381 63.1325C220.698 63.3815 221.15 63.6645 221.75 64.004C222.418 64.3775 222.825 64.6832 223.029 64.9322C223.222 65.1699 223.301 65.4415 223.267 65.7698C223.233 66.0867 223.086 66.3584 222.792 66.5961C222.52 66.8225 222.146 66.9356 221.671 66.8677C220.947 66.7545 220.539 66.4602 219.781 65.3623L219.215 65.9735C219.803 66.9356 220.845 67.5695 221.682 67.6601C222.475 67.7506 223.154 67.6035 223.708 67.1847Z" fill="#DEDEDE"></path>
  <path d="M227.66 66.3018H226.279L224.932 70.0371H225.905L227.66 66.3018Z" fill="#DEDEDE"></path>
  <path d="M238.297 60.6875C238.75 61.2648 238.874 62.1137 238.874 63.3362C238.874 64.5926 238.738 65.4529 238.297 66.0075C237.822 66.5848 237.324 66.8677 236.52 66.8677C235.603 66.8677 235.184 66.5961 234.72 66.0075C234.267 65.4415 234.018 64.5587 234.018 63.3249C234.018 62.1137 234.267 61.2309 234.72 60.6649C235.184 60.0763 235.58 59.8047 236.429 59.8047C237.312 59.8047 237.844 60.099 238.297 60.6875ZM239.452 66.4602C240.3 65.6566 240.719 64.6039 240.719 63.3249C240.719 62.0119 240.278 60.9479 239.395 60.1556C238.535 59.3972 237.72 59.0123 236.429 59.0123C235.139 59.0123 234.335 59.4085 233.486 60.1782C232.615 60.9592 232.185 62.0119 232.185 63.2796C232.185 64.5926 232.604 65.6566 233.464 66.4716C234.301 67.2639 235.116 67.6714 236.441 67.6714C237.799 67.6714 238.625 67.2639 239.452 66.4602Z" fill="#DEDEDE"></path>
  <path d="M249.339 65.4189C249.395 65.0793 249.463 64.5587 249.463 63.8569V59.0123H248.682V63.8116C248.682 64.4228 248.614 64.8643 248.569 65.1472C248.535 65.3849 248.41 65.634 248.229 65.883C248.071 66.1207 247.799 66.3244 247.414 66.4942C247.052 66.664 246.633 66.7432 246.181 66.7432C245.592 66.7432 245.139 66.6187 244.822 66.381C244.505 66.1433 244.347 65.883 244.279 65.566C244.245 65.4076 244.234 65.1812 244.222 64.8756C244.211 64.5587 244.211 64.1851 244.211 63.755V59.0123H242.547V63.7097L242.491 64.536C242.445 65.2152 242.581 65.7924 242.819 66.2225C243.056 66.664 243.441 67.0149 243.985 67.2752C244.517 67.5356 245.162 67.6714 245.909 67.6714C246.543 67.6714 247.109 67.5695 247.607 67.3658C248.093 67.162 248.49 66.8791 248.784 66.5168C249.044 66.1886 249.271 65.8151 249.339 65.4189Z" fill="#DEDEDE"></path>
  <path d="M254.853 60.2121C255.079 60.5064 255.215 60.8687 255.215 61.3893C255.215 61.6949 255.17 61.9213 255.102 62.1024C255.034 62.2948 254.943 62.4307 254.83 62.5325C254.694 62.6684 254.536 62.7929 254.366 62.8495C254.253 62.8834 254.129 62.9287 253.993 62.9627C253.868 62.9966 253.744 63.0079 253.619 63.0193H252.929V59.8499L253.178 59.8613C254.14 59.8613 254.649 59.9858 254.853 60.2121ZM255.193 63.4947C255.668 63.3362 256.064 63.0985 256.358 62.8155C256.8 62.3967 257.015 61.876 257.015 61.2761C257.015 60.7668 256.845 60.314 256.506 59.9405C256.166 59.567 255.736 59.3519 255.226 59.2048C254.717 59.0576 254.061 59.0123 253.291 59.0123H251.265V67.6714H252.929V63.789L253.019 63.8003C255.091 63.8003 256.177 67.1168 256.313 67.6714H257.819C256.924 65.4529 256.302 64.6152 256.302 64.6152C255.985 64.1964 255.623 63.789 255.193 63.4947Z" fill="#DEDEDE"></path>
  <path d="M265.94 60.2121C266.166 60.5064 266.302 60.8687 266.302 61.3893C266.302 61.6949 266.257 61.9213 266.189 62.1024C266.121 62.2948 266.03 62.4307 265.917 62.5325C265.781 62.6684 265.623 62.7929 265.453 62.8495C265.34 62.8834 265.215 62.9287 265.08 62.9627C264.955 62.9966 264.831 63.0079 264.706 63.0193H264.016V59.8499L264.265 59.8613C265.227 59.8613 265.736 59.9858 265.94 60.2121ZM266.279 63.4947C266.755 63.3362 267.151 63.0985 267.445 62.8155C267.887 62.3967 268.102 61.876 268.102 61.2761C268.102 60.7668 267.932 60.314 267.592 59.9405C267.253 59.567 266.823 59.3519 266.313 59.2048C265.804 59.0576 265.147 59.0123 264.378 59.0123H262.352V67.6714H264.016V63.789L264.106 63.8003C266.178 63.8003 267.264 67.1168 267.4 67.6714H268.905C268.011 65.4529 267.389 64.6152 267.389 64.6152C267.072 64.1964 266.71 63.789 266.279 63.4947Z" fill="#DEDEDE"></path>
  <path d="M275.729 59.7933V59.001H270.465V67.6601H275.706V66.8791H272.152V63.5173H274.495V62.7363H272.152V59.7933H275.729Z" fill="#DEDEDE"></path>
  <path d="M281.108 63.9022H279.059L280.067 61.4006L281.108 63.9022ZM284.481 67.6714L280.791 59.0123H280.225L276.648 67.6714H277.622L278.776 64.6718H281.414L281.968 66.0188C281.968 66.0188 282.161 66.4489 282.647 67.6714H284.481Z" fill="#DEDEDE"></path>
  <path d="M289.743 67.1847C290.287 66.7659 290.604 66.1886 290.683 65.4642C290.728 65.0001 290.672 64.5813 290.502 64.1851C290.343 63.8116 290.094 63.4947 289.777 63.257C289.483 63.0419 289.019 62.7476 288.374 62.3628C287.717 61.9779 287.287 61.661 287.083 61.412C286.88 61.1856 286.8 60.9366 286.834 60.6536C286.857 60.4272 286.959 60.2121 287.163 60.031C287.332 59.8726 287.604 59.782 288.023 59.8273C288.442 59.8726 288.793 60.0537 289.076 60.3933C289.155 60.4725 289.211 60.563 289.426 60.9026L290.083 60.3593C289.664 59.782 289.359 59.4877 289.03 59.3293C288.725 59.1821 288.385 59.0802 288.034 59.0463C287.389 58.9784 286.812 59.1255 286.336 59.4877C285.85 59.8613 285.578 60.3706 285.51 60.9932C285.465 61.3893 285.521 61.7855 285.691 62.1703C285.85 62.5439 286.087 62.8721 286.416 63.1325C286.733 63.3815 287.185 63.6645 287.785 64.004C288.453 64.3775 288.86 64.6832 289.064 64.9322C289.257 65.1699 289.336 65.4415 289.302 65.7698C289.268 66.0867 289.121 66.3584 288.827 66.5961C288.555 66.8225 288.181 66.9356 287.706 66.8677C286.982 66.7545 286.574 66.4602 285.816 65.3623L285.25 65.9735C285.838 66.9356 286.88 67.5695 287.717 67.6601C288.51 67.7506 289.189 67.6035 289.743 67.1847Z" fill="#DEDEDE"></path>
  <path d="M298.407 60.6875C298.86 61.2648 298.984 62.1137 298.984 63.3362C298.984 64.5926 298.849 65.4529 298.407 66.0075C297.932 66.5848 297.434 66.8677 296.63 66.8677C295.713 66.8677 295.294 66.5961 294.83 66.0075C294.378 65.4415 294.129 64.5587 294.129 63.3249C294.129 62.1137 294.378 61.2309 294.83 60.6649C295.294 60.0763 295.691 59.8047 296.54 59.8047C297.422 59.8047 297.954 60.099 298.407 60.6875ZM299.562 66.4602C300.411 65.6566 300.829 64.6039 300.829 63.3249C300.829 62.0119 300.388 60.9479 299.505 60.1556C298.645 59.3972 297.83 59.0123 296.54 59.0123C295.249 59.0123 294.446 59.4085 293.597 60.1782C292.725 60.9592 292.295 62.0119 292.295 63.2796C292.295 64.5926 292.714 65.6566 293.574 66.4716C294.412 67.2639 295.227 67.6714 296.551 67.6714C297.909 67.6714 298.735 67.2639 299.562 66.4602Z" fill="#DEDEDE"></path>
  <path d="M309.336 67.6714V59.0123H308.487V64.6832L304.242 59.0123H302.623V67.4676H303.404V60.6536L308.736 67.6714H309.336Z" fill="#DEDEDE"></path>
  <path d="M276.523 49.8037H282.602C286.683 49.8037 289.865 49.6653 292.078 49.3887C294.361 49.1811 296.713 48.5586 299.203 47.521C301.763 46.4834 303.976 44.9617 305.844 42.9557C307.78 41.0189 309.233 38.5287 310.34 35.5543C311.447 32.5799 312 29.2597 312 25.6627C312 20.6132 310.962 16.2554 308.956 12.4509C306.95 8.5773 303.907 5.60291 299.826 3.38942C295.745 1.10675 290.003 0 282.74 0H276.523V1.90884C278.118 1.78915 280.035 1.72929 281.772 1.72929C285.576 1.72929 288.689 2.14433 291.179 2.83604C293.6 3.59693 295.814 4.98037 297.82 7.05552C299.826 9.13068 301.417 11.7592 302.454 15.0103C303.561 18.3305 304.114 21.9966 304.114 26.2161C304.114 31.5423 303.146 35.9693 301.278 39.4279C299.48 42.8865 297.128 45.1692 294.361 46.3451C291.594 47.521 288.067 48.1436 283.778 48.1436H276.523V49.8037Z" fill="white"></path>
  <path d="M269.942 49.8037H277.136V0H270.288L252.096 41.2956L233.834 0H226.917V49.8037H228.577V4.77285L248.36 49.8037H250.09L269.942 4.77285V49.8037Z" fill="white"></path>
</svg>
